<?xml version="1.0" standalone="no"?>
<!DOCTYPE svg PUBLIC "-//W3C//DTD SVG 20010904//EN"
 "http://www.w3.org/TR/2001/REC-SVG-20010904/DTD/svg10.dtd">
<svg version="1.0" xmlns="http://www.w3.org/2000/svg"
 width="261.000000pt" height="261.000000pt" viewBox="0 0 261.000000 261.000000"
 preserveAspectRatio="xMidYMid meet">
<metadata>
Created by potrace 1.14, written by Peter Selinger 2001-2017
</metadata>
<g transform="translate(0.000000,261.000000) scale(0.100000,-0.100000)"
fill="#000000" stroke="none">
<path d="M1957 2444 c-1 -1 -29 -4 -62 -7 -275 -26 -685 -297 -933 -617 -37
-47 -69 -87 -73 -90 -31 -24 -108 -129 -139 -191 -22 -43 -58 -103 -80 -135
-101 -143 -172 -293 -214 -452 l-23 -87 -114 -48 c-62 -27 -117 -54 -121 -60
-13 -20 -9 -36 11 -47 16 -8 39 -2 112 30 51 22 95 40 98 40 3 0 7 -34 9 -76
7 -217 139 -383 363 -458 41 -14 108 -28 149 -31 41 -4 102 -14 135 -22 85
-22 234 -25 330 -7 288 54 648 307 767 539 92 179 101 390 29 633 -11 37 -27
96 -35 132 l-15 65 32 25 c194 151 286 397 221 592 -15 47 -70 130 -103 155
-88 69 -166 100 -273 112 -38 4 -69 6 -71 5z m78 -78 c177 -17 307 -142 318
-306 6 -89 -36 -224 -95 -300 -35 -46 -121 -130 -132 -130 -6 1 -27 26 -46 57
-19 30 -63 81 -97 113 -108 102 -242 151 -415 154 -54 0 -99 4 -99 9 -1 4 -2
10 -3 15 -2 4 -6 33 -10 65 -5 31 -11 57 -14 57 -6 0 -23 -22 -76 -100 -34
-51 -51 -66 -71 -68 -15 -1 -64 -15 -110 -30 -94 -31 -94 -31 5 64 217 210
511 375 715 402 33 5 65 7 70 6 6 -2 33 -5 60 -8z m-505 -525 c0 -3 -13 -19
-30 -34 l-30 -29 0 29 c0 17 2 32 5 35 8 8 55 7 55 -1z m-134 -87 c-3 -47 -10
-93 -15 -103 -9 -16 -80 -45 -89 -37 -4 5 25 121 45 173 14 37 25 48 57 52 5
0 6 -37 2 -85z m295 43 c21 -16 54 -82 64 -127 8 -37 15 -100 10 -100 -1 0
-20 6 -42 14 -22 8 -60 17 -85 20 -26 4 -62 13 -82 21 -19 8 -47 15 -61 15
-32 0 -32 8 4 56 68 93 148 135 192 101z m-461 -118 c-6 -18 -10 -49 -10 -66
0 -33 -9 -39 -50 -33 -23 3 -23 5 -5 42 21 40 66 101 71 95 2 -2 -1 -19 -6
-38z m739 -63 c53 -60 53 -61 16 -79 l-34 -16 -15 48 c-8 26 -24 68 -36 92
l-22 44 33 -30 c18 -16 44 -43 58 -59z m-928 39 c-12 -19 -30 -50 -41 -69 -11
-18 -33 -39 -49 -46 -89 -37 -139 -172 -97 -262 l17 -36 -38 -81 c-21 -44 -41
-81 -45 -81 -9 0 -27 91 -31 155 -6 85 60 245 127 310 38 38 167 144 174 145
2 0 -6 -16 -17 -35z m530 -146 l29 -20 -29 -25 c-16 -13 -32 -24 -35 -24 -3 0
-29 14 -57 32 l-52 32 39 12 c57 17 73 16 105 -7z m-431 -3 c0 -2 -7 -6 -15
-10 -8 -3 -15 -1 -15 4 0 6 7 10 15 10 8 0 15 -2 15 -4z m737 -18 c-3 -8 -6
-5 -6 6 -1 11 2 17 5 13 3 -3 4 -12 1 -19z m214 -59 c24 -47 27 -63 24 -125
-7 -119 -58 -235 -151 -339 l-43 -49 18 59 c10 33 26 80 36 105 20 54 26 138
13 194 -15 66 -16 71 -19 122 -3 47 -2 49 36 71 22 13 44 21 50 20 5 -2 22
-28 36 -58z m-1153 -57 c-12 -73 -28 -80 -28 -14 0 28 28 97 36 89 2 -1 -2
-35 -8 -75z m806 57 c-3 -5 -10 -7 -15 -3 -5 3 -7 10 -3 15 3 5 10 7 15 3 5
-3 7 -10 3 -15z m-615 -65 c-21 -41 -39 -82 -39 -90 0 -7 -5 -14 -11 -14 -7 0
-9 18 -6 50 4 43 10 55 48 89 24 22 45 41 46 41 0 0 -16 -34 -38 -76z m321 40
c26 -14 53 -37 59 -50 10 -23 8 -26 -24 -40 -20 -8 -61 -26 -92 -39 -66 -29
-59 -29 -67 -10 -5 14 60 165 71 165 3 0 27 -12 53 -26z m177 -21 c-3 -3 -11
-2 -17 2 -8 5 -7 11 2 22 12 15 13 14 16 -1 2 -10 1 -20 -1 -23z m259 -40 c18
-35 21 -56 18 -124 -2 -45 -6 -84 -8 -87 -3 -2 -18 9 -33 26 -27 30 -28 34
-26 129 1 54 2 100 2 101 3 15 30 -12 47 -45z m-681 -50 c-4 -10 -8 -25 -10
-34 -7 -33 -37 -93 -42 -82 -4 12 45 133 54 133 3 0 2 -8 -2 -17z m382 -45
c-24 -41 -106 -108 -131 -108 -21 0 -79 41 -70 50 5 4 50 25 99 46 50 20 94
41 100 46 24 21 25 4 2 -34z m-931 -39 c-17 -62 -24 -93 -32 -164 -13 -110 -8
-101 -64 -126 -29 -13 -40 -15 -40 -5 0 43 135 365 148 352 2 -2 -4 -28 -12
-57z m297 -56 c3 -16 8 -35 12 -44 6 -16 -11 -26 -82 -50 l-22 -7 25 56 c39
88 56 100 67 45z m1222 -123 c-6 -154 -41 -254 -132 -372 -56 -73 -85 -95
-208 -155 -208 -102 -254 -110 -367 -61 l-51 22 36 33 c20 18 45 33 54 33 27
0 118 37 164 65 53 34 116 92 149 136 14 20 53 58 85 84 116 92 208 209 243
307 23 67 32 39 27 -92z m-850 110 c18 -20 18 -20 -28 -19 -53 2 -60 13 -19
27 15 6 27 11 28 11 0 1 9 -8 19 -19z m336 -96 c-41 -148 -121 -303 -181 -351
-18 -15 -86 -26 -164 -27 l-59 -1 -14 40 c-17 47 -21 64 -29 126 l-6 46 66 6
c112 11 251 84 350 186 28 28 51 49 53 47 2 -2 -5 -34 -16 -72z m209 -52 c-7
-20 -25 -67 -42 -103 -29 -64 -32 -67 -109 -108 -43 -23 -79 -40 -79 -37 0 4
11 24 24 44 36 57 111 211 126 257 19 60 20 60 57 21 33 -35 34 -38 23 -74z
m-1145 46 c12 -42 12 -44 -12 -55 l-25 -12 5 57 c4 31 6 59 7 61 1 13 13 -12
25 -51z m759 23 c16 -6 13 -10 -20 -32 -59 -38 -141 -70 -191 -74 -65 -6 -70
-2 -63 53 l5 47 91 -2 c50 -1 104 2 120 7 36 10 35 10 58 1z m-344 -41 c0 -11
-4 -20 -9 -20 -6 0 -9 9 -8 20 1 11 5 20 9 20 4 0 8 -9 8 -20z m-124 -1 c11
-18 10 -259 -1 -259 -28 1 -165 158 -165 189 0 12 23 27 73 48 84 36 84 36 93
22z m-240 -117 c11 -76 19 -103 46 -155 38 -70 99 -126 183 -168 54 -26 64
-36 74 -69 6 -21 20 -59 32 -84 l20 -46 59 0 c34 0 81 8 112 20 l53 20 58 -30
58 -29 -53 -16 c-95 -27 -234 -55 -311 -61 -72 -6 -78 -5 -138 27 -176 94
-271 258 -285 494 l-6 90 44 16 c47 18 51 17 54 -9z m-162 -121 c16 -190 81
-343 191 -443 39 -36 18 -35 -58 3 -180 89 -260 231 -249 445 2 27 8 34 50 52
26 11 50 21 53 21 3 1 9 -35 13 -78z m378 -93 c53 -33 67 -60 17 -31 -42 25
-109 82 -109 94 0 5 10 0 22 -11 13 -12 44 -35 70 -52z m633 -36 c-6 -5 -23
-14 -39 -21 -26 -11 -28 -10 -17 3 7 8 22 17 34 19 12 2 24 5 27 6 2 0 0 -3
-5 -7z m-485 -42 c0 -5 -2 -10 -4 -10 -3 0 -8 5 -11 10 -3 6 -1 10 4 10 6 0
11 -4 11 -10z m187 -26 c-3 -3 -12 -4 -19 -1 -8 3 -5 6 6 6 11 1 17 -2 13 -5z
m-127 -79 c8 -7 29 -11 46 -9 38 4 66 -19 37 -31 -10 -3 -37 -9 -61 -12 -41
-5 -43 -4 -57 31 -8 19 -15 38 -15 40 0 8 33 -5 50 -19z m314 -215 c-45 -15
-101 -31 -125 -34 -24 -3 6 9 66 28 134 41 170 45 59 6z"/>
</g>
</svg>
